<svg width="45" height="35" viewBox="0 0 45 35" fill="none" xmlns="http://www.w3.org/2000/svg">
<path d="M18.7352 16.2644L18.7353 16.2645C19.419 16.9482 19.419 18.0514 18.7353 18.7351L18.7353 18.7351L3.73764 33.7351C3.05396 34.4187 1.94609 34.4187 1.2626 33.7352C0.579132 33.0515 0.579132 31.9481 1.2626 31.2644L1.26263 31.2644L14.4914 18.03L15.0214 17.4997L14.4913 16.9695L1.2626 3.73752C1.2626 3.73752 1.26259 3.73751 1.26258 3.73751C0.579218 3.0539 0.579139 1.94604 1.26235 1.26234C1.26238 1.2623 1.26241 1.26227 1.26244 1.26224C1.2625 1.26219 1.26255 1.26213 1.2626 1.26208C1.94613 0.579271 3.05411 0.579269 3.73777 1.2623C3.7378 1.26233 3.73782 1.26235 3.73785 1.26238L18.7352 16.2644ZM42.5 30.7498C43.4686 30.7498 44.25 31.5312 44.25 32.4998C44.25 33.4684 43.4686 34.2498 42.5 34.2498H20C19.0314 34.2498 18.25 33.4684 18.25 32.4998C18.25 31.5312 19.0314 30.7498 20 30.7498H42.5Z" stroke="#3294F8" stroke-width="1.5"/>
</svg>
